<svg width="46" height="46" viewBox="0 0 46 46" fill="none" xmlns="http://www.w3.org/2000/svg">
<path d="M22.9987 26.8333C27.2269 26.8333 30.6654 23.3948 30.6654 19.1667C30.6654 14.9385 27.2269 11.5 22.9987 11.5C18.7705 11.5 15.332 14.9385 15.332 19.1667C15.332 23.3948 18.7705 26.8333 22.9987 26.8333ZM22.9987 15.3333C25.1128 15.3333 26.832 17.0526 26.832 19.1667C26.832 21.2807 25.1128 23 22.9987 23C20.8846 23 19.1654 21.2807 19.1654 19.1667C19.1654 17.0526 20.8846 15.3333 22.9987 15.3333Z" fill="white"/>
<path d="M21.8898 41.8101C22.2142 42.0417 22.6029 42.1663 23.0015 42.1663C23.4001 42.1663 23.7887 42.0417 24.1131 41.8101C24.6958 41.398 38.3904 31.5099 38.3348 19.1666C38.3348 10.7122 31.4559 3.83325 23.0015 3.83325C14.5471 3.83325 7.66814 10.7122 7.66814 19.157C7.61255 31.5099 21.3071 41.398 21.8898 41.8101ZM23.0015 7.66659C29.3437 7.66659 34.5015 12.8243 34.5015 19.1762C34.5417 27.6823 26.0911 35.3203 23.0015 37.8253C19.9137 35.3183 11.4612 27.6785 11.5015 19.1666C11.5015 12.8243 16.6592 7.66659 23.0015 7.66659Z" fill="white"/>
</svg>
